<mxfile host="app.diagrams.net" modified="2023-05-09T20:00:25.717Z" agent="Mozilla/5.0 (X11; Ubuntu; Linux x86_64; rv:109.0) Gecko/20100101 Firefox/112.0" etag="DhTYZl1OdB8hUJNevgD2" version="21.2.3" type="device">
  <diagram name="Page-1" id="yontaSrXZXfk3Ear3pKM">
    <mxGraphModel dx="1360" dy="766" grid="1" gridSize="10" guides="1" tooltips="1" connect="1" arrows="1" fold="1" page="1" pageScale="1" pageWidth="1100" pageHeight="850" math="0" shadow="0">
      <root>
        <mxCell id="0" />
        <mxCell id="1" parent="0" />
        <mxCell id="Oc4dh5d6SgEHeIExGs-t-63" value="&lt;div&gt;build&lt;/div&gt;" style="swimlane;whiteSpace=wrap;html=1;strokeColor=default;" parent="1" vertex="1">
          <mxGeometry x="20" y="20" width="570" height="560" as="geometry" />
        </mxCell>
        <mxCell id="Oc4dh5d6SgEHeIExGs-t-2" value="&lt;div&gt;build-linux&lt;/div&gt;" style="rounded=1;whiteSpace=wrap;html=1;fillColor=#dae8fc;strokeColor=#6c8ebf;" parent="Oc4dh5d6SgEHeIExGs-t-63" vertex="1">
          <mxGeometry x="75" y="262.5" width="70" height="20" as="geometry" />
        </mxCell>
        <mxCell id="Oc4dh5d6SgEHeIExGs-t-5" value="&lt;div&gt;build-windows&lt;/div&gt;" style="rounded=1;whiteSpace=wrap;html=1;fillColor=#dae8fc;strokeColor=#6c8ebf;" parent="Oc4dh5d6SgEHeIExGs-t-63" vertex="1">
          <mxGeometry x="330" y="262.5" width="90" height="20" as="geometry" />
        </mxCell>
        <mxCell id="Oc4dh5d6SgEHeIExGs-t-32" style="edgeStyle=orthogonalEdgeStyle;rounded=0;orthogonalLoop=1;jettySize=auto;html=1;" parent="Oc4dh5d6SgEHeIExGs-t-63" source="Oc4dh5d6SgEHeIExGs-t-17" target="iR3uuXp22YNKEhmwGcPO-3" edge="1">
          <mxGeometry relative="1" as="geometry">
            <mxPoint x="275" y="507.5" as="targetPoint" />
            <Array as="points">
              <mxPoint x="110" y="478" />
              <mxPoint x="275" y="478" />
            </Array>
          </mxGeometry>
        </mxCell>
        <mxCell id="Oc4dh5d6SgEHeIExGs-t-17" value="&lt;div&gt;test-linux-make&lt;/div&gt;" style="rounded=1;whiteSpace=wrap;html=1;fillColor=#d5e8d4;strokeColor=#82b366;" parent="Oc4dh5d6SgEHeIExGs-t-63" vertex="1">
          <mxGeometry x="60" y="417.5" width="100" height="20" as="geometry" />
        </mxCell>
        <mxCell id="Oc4dh5d6SgEHeIExGs-t-15" style="edgeStyle=orthogonalEdgeStyle;rounded=0;orthogonalLoop=1;jettySize=auto;html=1;" parent="Oc4dh5d6SgEHeIExGs-t-63" source="Oc4dh5d6SgEHeIExGs-t-2" target="Oc4dh5d6SgEHeIExGs-t-17" edge="1">
          <mxGeometry relative="1" as="geometry">
            <mxPoint x="110" y="377.5" as="targetPoint" />
          </mxGeometry>
        </mxCell>
        <mxCell id="Oc4dh5d6SgEHeIExGs-t-30" style="edgeStyle=orthogonalEdgeStyle;rounded=0;orthogonalLoop=1;jettySize=auto;html=1;" parent="Oc4dh5d6SgEHeIExGs-t-63" source="Oc4dh5d6SgEHeIExGs-t-18" target="iR3uuXp22YNKEhmwGcPO-3" edge="1">
          <mxGeometry relative="1" as="geometry">
            <mxPoint x="275" y="507.5" as="targetPoint" />
            <Array as="points">
              <mxPoint x="300" y="478" />
              <mxPoint x="275" y="478" />
            </Array>
          </mxGeometry>
        </mxCell>
        <mxCell id="Oc4dh5d6SgEHeIExGs-t-18" value="&lt;div&gt;test-windows-cmake&lt;/div&gt;" style="rounded=1;whiteSpace=wrap;html=1;fillColor=#d5e8d4;strokeColor=#82b366;" parent="Oc4dh5d6SgEHeIExGs-t-63" vertex="1">
          <mxGeometry x="240" y="417.5" width="120" height="20" as="geometry" />
        </mxCell>
        <mxCell id="Oc4dh5d6SgEHeIExGs-t-31" style="edgeStyle=orthogonalEdgeStyle;rounded=0;orthogonalLoop=1;jettySize=auto;html=1;" parent="Oc4dh5d6SgEHeIExGs-t-63" source="Oc4dh5d6SgEHeIExGs-t-19" target="iR3uuXp22YNKEhmwGcPO-3" edge="1">
          <mxGeometry relative="1" as="geometry">
            <mxPoint x="275" y="507.5" as="targetPoint" />
            <Array as="points">
              <mxPoint x="440" y="478" />
              <mxPoint x="275" y="478" />
            </Array>
          </mxGeometry>
        </mxCell>
        <mxCell id="Oc4dh5d6SgEHeIExGs-t-19" value="&lt;div&gt;test-windows-msbuild&lt;/div&gt;" style="rounded=1;whiteSpace=wrap;html=1;fillColor=#d5e8d4;strokeColor=#82b366;" parent="Oc4dh5d6SgEHeIExGs-t-63" vertex="1">
          <mxGeometry x="380" y="417.5" width="120" height="20" as="geometry" />
        </mxCell>
        <mxCell id="Oc4dh5d6SgEHeIExGs-t-26" style="edgeStyle=orthogonalEdgeStyle;rounded=0;orthogonalLoop=1;jettySize=auto;html=1;" parent="Oc4dh5d6SgEHeIExGs-t-63" source="Oc4dh5d6SgEHeIExGs-t-5" target="Oc4dh5d6SgEHeIExGs-t-19" edge="1">
          <mxGeometry relative="1" as="geometry">
            <Array as="points">
              <mxPoint x="375" y="397.5" />
              <mxPoint x="440" y="397.5" />
            </Array>
          </mxGeometry>
        </mxCell>
        <mxCell id="Oc4dh5d6SgEHeIExGs-t-22" style="edgeStyle=orthogonalEdgeStyle;rounded=0;orthogonalLoop=1;jettySize=auto;html=1;" parent="Oc4dh5d6SgEHeIExGs-t-63" source="Oc4dh5d6SgEHeIExGs-t-5" target="Oc4dh5d6SgEHeIExGs-t-18" edge="1">
          <mxGeometry relative="1" as="geometry">
            <mxPoint x="340" y="337.5" as="sourcePoint" />
            <Array as="points">
              <mxPoint x="375" y="397.5" />
              <mxPoint x="300" y="397.5" />
            </Array>
          </mxGeometry>
        </mxCell>
        <mxCell id="Oc4dh5d6SgEHeIExGs-t-36" value="" style="rhombus;" parent="Oc4dh5d6SgEHeIExGs-t-63" vertex="1">
          <mxGeometry x="230" y="257.5" width="30" height="30" as="geometry" />
        </mxCell>
        <mxCell id="Oc4dh5d6SgEHeIExGs-t-48" style="edgeStyle=orthogonalEdgeStyle;rounded=0;orthogonalLoop=1;jettySize=auto;html=1;entryX=0;entryY=0.5;entryDx=0;entryDy=0;" parent="Oc4dh5d6SgEHeIExGs-t-63" source="Oc4dh5d6SgEHeIExGs-t-2" target="Oc4dh5d6SgEHeIExGs-t-36" edge="1">
          <mxGeometry relative="1" as="geometry" />
        </mxCell>
        <mxCell id="Oc4dh5d6SgEHeIExGs-t-43" value="" style="group" parent="Oc4dh5d6SgEHeIExGs-t-63" vertex="1" connectable="0">
          <mxGeometry x="217.5" y="177.5" width="55" height="50" as="geometry" />
        </mxCell>
        <mxCell id="Oc4dh5d6SgEHeIExGs-t-33" value="" style="ellipse;html=1;shape=startState;fillColor=#000000;strokeColor=default;" parent="Oc4dh5d6SgEHeIExGs-t-43" vertex="1">
          <mxGeometry x="12.5" y="20" width="30" height="30" as="geometry" />
        </mxCell>
        <mxCell id="Oc4dh5d6SgEHeIExGs-t-35" value="&lt;div&gt;Deploy&lt;/div&gt;" style="text;html=1;strokeColor=none;fillColor=none;align=center;verticalAlign=middle;whiteSpace=wrap;rounded=0;" parent="Oc4dh5d6SgEHeIExGs-t-43" vertex="1">
          <mxGeometry width="55" height="20" as="geometry" />
        </mxCell>
        <mxCell id="Oc4dh5d6SgEHeIExGs-t-44" value="" style="group" parent="Oc4dh5d6SgEHeIExGs-t-63" vertex="1" connectable="0">
          <mxGeometry x="217.5" y="57.5" width="55" height="50" as="geometry" />
        </mxCell>
        <mxCell id="iR3uuXp22YNKEhmwGcPO-1" value="" style="ellipse;html=1;shape=startState;fillColor=#000000;strokeColor=default;" parent="Oc4dh5d6SgEHeIExGs-t-44" vertex="1">
          <mxGeometry x="12.5" y="20" width="30" height="30" as="geometry" />
        </mxCell>
        <mxCell id="Oc4dh5d6SgEHeIExGs-t-28" value="&lt;div&gt;Push&lt;/div&gt;" style="text;html=1;strokeColor=none;fillColor=none;align=center;verticalAlign=middle;whiteSpace=wrap;rounded=0;" parent="Oc4dh5d6SgEHeIExGs-t-44" vertex="1">
          <mxGeometry width="55" height="20" as="geometry" />
        </mxCell>
        <mxCell id="Oc4dh5d6SgEHeIExGs-t-49" style="edgeStyle=orthogonalEdgeStyle;rounded=0;orthogonalLoop=1;jettySize=auto;html=1;entryX=0.5;entryY=0;entryDx=0;entryDy=0;" parent="Oc4dh5d6SgEHeIExGs-t-63" source="Oc4dh5d6SgEHeIExGs-t-33" target="Oc4dh5d6SgEHeIExGs-t-36" edge="1">
          <mxGeometry relative="1" as="geometry" />
        </mxCell>
        <mxCell id="Oc4dh5d6SgEHeIExGs-t-50" style="edgeStyle=orthogonalEdgeStyle;rounded=0;orthogonalLoop=1;jettySize=auto;html=1;" parent="Oc4dh5d6SgEHeIExGs-t-63" source="iR3uuXp22YNKEhmwGcPO-1" target="Oc4dh5d6SgEHeIExGs-t-2" edge="1">
          <mxGeometry relative="1" as="geometry">
            <Array as="points">
              <mxPoint x="245" y="147.5" />
              <mxPoint x="110" y="147.5" />
            </Array>
          </mxGeometry>
        </mxCell>
        <mxCell id="Oc4dh5d6SgEHeIExGs-t-51" style="edgeStyle=orthogonalEdgeStyle;rounded=0;orthogonalLoop=1;jettySize=auto;html=1;" parent="Oc4dh5d6SgEHeIExGs-t-63" source="iR3uuXp22YNKEhmwGcPO-1" target="Oc4dh5d6SgEHeIExGs-t-5" edge="1">
          <mxGeometry relative="1" as="geometry">
            <Array as="points">
              <mxPoint x="245" y="147.5" />
              <mxPoint x="375" y="147.5" />
            </Array>
          </mxGeometry>
        </mxCell>
        <mxCell id="Oc4dh5d6SgEHeIExGs-t-47" style="edgeStyle=orthogonalEdgeStyle;rounded=0;orthogonalLoop=1;jettySize=auto;html=1;entryX=1;entryY=0.5;entryDx=0;entryDy=0;" parent="Oc4dh5d6SgEHeIExGs-t-63" source="Oc4dh5d6SgEHeIExGs-t-5" target="Oc4dh5d6SgEHeIExGs-t-36" edge="1">
          <mxGeometry relative="1" as="geometry" />
        </mxCell>
        <mxCell id="iR3uuXp22YNKEhmwGcPO-3" value="" style="ellipse;html=1;shape=endState;fillColor=#000000;strokeColor=default;" parent="Oc4dh5d6SgEHeIExGs-t-63" vertex="1">
          <mxGeometry x="260" y="515" width="30" height="30" as="geometry" />
        </mxCell>
        <mxCell id="Oc4dh5d6SgEHeIExGs-t-69" value="&lt;div&gt;build-update&lt;/div&gt;" style="rounded=1;whiteSpace=wrap;html=1;fillColor=#ffe6cc;strokeColor=#d79b00;" parent="Oc4dh5d6SgEHeIExGs-t-63" vertex="1">
          <mxGeometry x="410" y="520" width="120" height="20" as="geometry" />
        </mxCell>
        <mxCell id="Oc4dh5d6SgEHeIExGs-t-74" style="edgeStyle=orthogonalEdgeStyle;rounded=0;orthogonalLoop=1;jettySize=auto;html=1;" parent="Oc4dh5d6SgEHeIExGs-t-63" source="Oc4dh5d6SgEHeIExGs-t-69" target="iR3uuXp22YNKEhmwGcPO-3" edge="1">
          <mxGeometry relative="1" as="geometry">
            <mxPoint x="325" y="530" as="sourcePoint" />
          </mxGeometry>
        </mxCell>
        <mxCell id="Oc4dh5d6SgEHeIExGs-t-66" value="&lt;div&gt;build-broadcast&lt;/div&gt;" style="swimlane;whiteSpace=wrap;html=1;" parent="1" vertex="1">
          <mxGeometry x="610" y="285" width="170" height="140" as="geometry" />
        </mxCell>
        <mxCell id="Oc4dh5d6SgEHeIExGs-t-60" value="&lt;div&gt;broadcast&lt;/div&gt;" style="rounded=1;whiteSpace=wrap;html=1;fillColor=#ffe6cc;strokeColor=#d79b00;" parent="Oc4dh5d6SgEHeIExGs-t-66" vertex="1">
          <mxGeometry x="30" y="77.5" width="90" height="20" as="geometry" />
        </mxCell>
        <mxCell id="Oc4dh5d6SgEHeIExGs-t-68" style="edgeStyle=orthogonalEdgeStyle;rounded=0;orthogonalLoop=1;jettySize=auto;html=1;dashed=1;dashPattern=8 8;" parent="1" source="Oc4dh5d6SgEHeIExGs-t-36" target="Oc4dh5d6SgEHeIExGs-t-60" edge="1">
          <mxGeometry relative="1" as="geometry">
            <Array as="points">
              <mxPoint x="265" y="370" />
              <mxPoint x="685" y="370" />
            </Array>
          </mxGeometry>
        </mxCell>
        <mxCell id="Oc4dh5d6SgEHeIExGs-t-73" style="edgeStyle=orthogonalEdgeStyle;rounded=0;orthogonalLoop=1;jettySize=auto;html=1;dashed=1;dashPattern=8 8;" parent="1" source="Oc4dh5d6SgEHeIExGs-t-60" target="Oc4dh5d6SgEHeIExGs-t-69" edge="1">
          <mxGeometry relative="1" as="geometry">
            <Array as="points">
              <mxPoint x="685" y="550" />
            </Array>
          </mxGeometry>
        </mxCell>
        <mxCell id="Oc4dh5d6SgEHeIExGs-t-75" value="cutils" style="swimlane;whiteSpace=wrap;html=1;" parent="1" vertex="1">
          <mxGeometry x="610" y="20" width="250" height="210" as="geometry">
            <mxRectangle x="800" y="250" width="70" height="30" as="alternateBounds" />
          </mxGeometry>
        </mxCell>
        <mxCell id="Oc4dh5d6SgEHeIExGs-t-88" style="edgeStyle=orthogonalEdgeStyle;rounded=0;orthogonalLoop=1;jettySize=auto;html=1;" parent="Oc4dh5d6SgEHeIExGs-t-75" source="Oc4dh5d6SgEHeIExGs-t-76" target="Oc4dh5d6SgEHeIExGs-t-83" edge="1">
          <mxGeometry relative="1" as="geometry" />
        </mxCell>
        <mxCell id="Oc4dh5d6SgEHeIExGs-t-76" value="&lt;div&gt;build-update&lt;/div&gt;" style="rounded=1;whiteSpace=wrap;html=1;fillColor=#ffe6cc;strokeColor=#d79b00;" parent="Oc4dh5d6SgEHeIExGs-t-75" vertex="1">
          <mxGeometry x="30" y="112.5" width="80" height="20" as="geometry" />
        </mxCell>
        <mxCell id="Oc4dh5d6SgEHeIExGs-t-80" value="" style="group" parent="Oc4dh5d6SgEHeIExGs-t-75" vertex="1" connectable="0">
          <mxGeometry x="150" y="40" width="55" height="50" as="geometry" />
        </mxCell>
        <mxCell id="Oc4dh5d6SgEHeIExGs-t-81" value="" style="ellipse;html=1;shape=startState;fillColor=#000000;strokeColor=default;" parent="Oc4dh5d6SgEHeIExGs-t-80" vertex="1">
          <mxGeometry x="12.5" y="20" width="30" height="30" as="geometry" />
        </mxCell>
        <mxCell id="Oc4dh5d6SgEHeIExGs-t-82" value="&lt;div&gt;Push&lt;/div&gt;" style="text;html=1;strokeColor=none;fillColor=none;align=center;verticalAlign=middle;whiteSpace=wrap;rounded=0;" parent="Oc4dh5d6SgEHeIExGs-t-80" vertex="1">
          <mxGeometry width="55" height="20" as="geometry" />
        </mxCell>
        <mxCell id="Oc4dh5d6SgEHeIExGs-t-86" style="edgeStyle=orthogonalEdgeStyle;rounded=0;orthogonalLoop=1;jettySize=auto;html=1;" parent="Oc4dh5d6SgEHeIExGs-t-75" source="Oc4dh5d6SgEHeIExGs-t-83" target="Oc4dh5d6SgEHeIExGs-t-85" edge="1">
          <mxGeometry relative="1" as="geometry" />
        </mxCell>
        <mxCell id="Oc4dh5d6SgEHeIExGs-t-83" value="test" style="rounded=1;whiteSpace=wrap;html=1;fillColor=#d5e8d4;strokeColor=#82b366;" parent="Oc4dh5d6SgEHeIExGs-t-75" vertex="1">
          <mxGeometry x="157.5" y="112.5" width="40" height="20" as="geometry" />
        </mxCell>
        <mxCell id="Oc4dh5d6SgEHeIExGs-t-84" style="edgeStyle=orthogonalEdgeStyle;rounded=0;orthogonalLoop=1;jettySize=auto;html=1;" parent="Oc4dh5d6SgEHeIExGs-t-75" source="Oc4dh5d6SgEHeIExGs-t-81" target="Oc4dh5d6SgEHeIExGs-t-83" edge="1">
          <mxGeometry relative="1" as="geometry" />
        </mxCell>
        <mxCell id="Oc4dh5d6SgEHeIExGs-t-85" value="" style="ellipse;html=1;shape=endState;fillColor=#000000;strokeColor=default;" parent="Oc4dh5d6SgEHeIExGs-t-75" vertex="1">
          <mxGeometry x="162.5" y="160" width="30" height="30" as="geometry" />
        </mxCell>
        <mxCell id="Oc4dh5d6SgEHeIExGs-t-79" style="edgeStyle=orthogonalEdgeStyle;rounded=0;orthogonalLoop=1;jettySize=auto;html=1;dashed=1;dashPattern=8 8;" parent="1" source="Oc4dh5d6SgEHeIExGs-t-60" target="Oc4dh5d6SgEHeIExGs-t-76" edge="1">
          <mxGeometry relative="1" as="geometry">
            <Array as="points">
              <mxPoint x="685" y="250" />
              <mxPoint x="685" y="250" />
            </Array>
          </mxGeometry>
        </mxCell>
      </root>
    </mxGraphModel>
  </diagram>
</mxfile>
